# xmcd CD database file
#
# Track frame offsets:
#	150
#	24212
#	48810
#	77413
#	108393
#	142624
#	152466
#	167361
#	242108
#	286090
#	300060
#	317748
#	343154
#
# Disc length: 4594 seconds
#
# Revision: 0
# Processed by: cddbd v1.5.2PL0 Copyright (c) Steve Scherf et al.
# Submitted via: CDex 1.51
#
DISCID=8911f00d
DTITLE=Walter Trout, Joe Bonamassa and Rollo Markee and The Tailshakers - BBC BLUES SESSIONS VOL 4
DYEAR=1900
DGENRE=Blues
TTITLE0=01 Walter Trout - Workin' Overtime (Broadcast 5th October 2006)
TTITLE1=02 Walter Trout (with Paul Jones) - Can't Help Falling Apart (Broadcast 5th October 2006)
TTITLE2=03 Walter Trout - She Takes More Than She Gives (Broadcast 5th October 2006)
TTITLE3=04 Walter Trout - Love So Deep (Cardiff Coal Exchange 11th Oct 2001)
TTITLE4=05 Walter Trout - Go The Distance (Cardiff Coal Exchange 11th Oct 2001)
TTITLE5=06 Walter Trout - Walkin' In The Rain (Cut) (Cardiff Coal Exchange 11th Oct 2001)
TTITLE6=07 Joe Bonamassa - Woke Up Dreaming (Broadcast 19th October 2006)
TTITLE7=08 Joe Bonamassa - Walk In My Shadow and So Many Roads and Bridge To Better Days (Broadcast 19th October 2006)
TTITLE8=09 Joe Bonamassa - Just Got Paid (Broadcast 23rd November 2006)
TTITLE9=10 Rollo Markee and The Tailshakers - Woop Yes We Are (Broadcast 26th October 2006)
TTITLE10=11 Rollo Markee and The Tailshakers - Julius Junior (Broadcast 26th October 2006)
TTITLE11=12 Rollo Markee and The Tailshakers - Everybody (Broadcast 26th October 2006)
TTITLE12=Data Track
EXTD=
EXTT0=
EXTT1=
EXTT2=
EXTT3=
EXTT4=
EXTT5=
EXTT6=
EXTT7=
EXTT8=
EXTT9=
EXTT10=
EXTT11=
EXTT12=
PLAYORDER=
